<svg width="131" height="126" viewBox="0 0 131 126" fill="none" xmlns="http://www.w3.org/2000/svg">
<circle cx="62.5137" cy="68.4999" r="27.5" fill="#FF003D"/>
<rect x="73.4692" y="54.9999" width="5" height="36" rx="2.5" transform="rotate(45 73.4692 54.9999)" fill="white"/>
<rect x="77.0049" y="80.4558" width="5" height="36" rx="2.5" transform="rotate(135 77.0049 80.4558)" fill="white"/>
<path d="M111.232 104.679C109.103 106.993 105.866 108.27 101.613 108.422C97.352 108.575 92.1919 107.589 86.4468 105.507C74.9633 101.345 61.4314 92.9051 48.6325 81.1327C35.8335 69.3602 26.2946 56.5794 21.1891 45.483C18.6349 39.9316 17.2225 34.8717 17.0194 30.6129C16.8166 26.3617 17.8184 23.0297 19.9473 20.7152C22.0762 18.4006 25.3131 17.1245 29.5664 16.972C33.8273 16.8192 38.9873 17.8046 44.7324 19.8869C56.216 24.0492 69.7478 32.4889 82.5468 44.2613C95.3457 56.0338 104.885 68.8146 109.99 79.911C112.544 85.4624 113.957 90.5223 114.16 94.7811C114.363 99.0323 113.361 102.364 111.232 104.679Z" stroke="#4F0078" stroke-width="3"/>
<circle cx="97.1735" cy="107.371" r="7" transform="rotate(24.8037 97.1735 107.371)" fill="#FBCCE4"/>
<circle cx="109.759" cy="80.1384" r="4" transform="rotate(24.8037 109.759 80.1384)" fill="#E1FCF5"/>
</svg>
